<svg xmlns="http://www.w3.org/2000/svg" xmlns:xlink="http://www.w3.org/1999/xlink" width="500" zoomAndPan="magnify" viewBox="0 0 375 374.999991" height="500" preserveAspectRatio="xMidYMid meet" version="1.0"><defs><g/></defs><g fill="#ffffff" fill-opacity="1"><g transform="translate(54.711608, 263.396599)"><g><path d="M 60.1875 3.09375 C 48.875 3.09375 38.144531 1.804688 28 -0.765625 C 17.851562 -3.335938 9.398438 -6.90625 2.640625 -11.46875 L 2.640625 -50.265625 L 46.75 -50.265625 L 46.75 -48.0625 C 46.75 -40.125 50.566406 -36.15625 58.203125 -36.15625 C 62.171875 -36.15625 65.144531 -37.21875 67.125 -39.34375 C 69.113281 -41.476562 70.109375 -44.828125 70.109375 -49.390625 L 70.109375 -135.375 L 50.265625 -135.375 L 50.265625 -171.53125 L 142.875 -171.53125 L 142.875 -135.375 L 131.84375 -135.375 L 131.84375 -61.296875 C 131.84375 -39.691406 125.519531 -23.554688 112.875 -12.890625 C 100.238281 -2.234375 82.675781 3.09375 60.1875 3.09375 Z M 60.1875 3.09375 "/></g></g></g><path stroke-linecap="butt" transform="matrix(1.319574, 0, 0, 1.319574, 139.760607, 33.158586)" fill="none" stroke-linejoin="miter" d="M 89.009188 44.990842 L 144.815538 44.990842 L 144.815538 72.405578 L 138.125407 72.405578 L 108.224074 175.001402 L 54.090257 175.001402 L 24.188923 72.405578 L 17.498792 72.405578 L 17.498792 44.990842 L 81.667806 44.990842 L 81.667806 72.405578 L 72.976556 72.405578 L 84.521472 128.37178 L 86.194005 128.37178 L 97.697478 72.405578 L 89.009188 72.405578 Z M 89.009188 44.990842 " stroke="#000000" stroke-width="12.53205" stroke-opacity="1" stroke-miterlimit="4"/><g fill="#ffffff" fill-opacity="1"><g transform="translate(160.214008, 264.084088)"><g><path d="M 97.015625 -171.53125 L 170.65625 -171.53125 L 170.65625 -135.375 L 161.828125 -135.375 L 122.375 0 L 50.9375 0 L 11.46875 -135.375 L 2.640625 -135.375 L 2.640625 -171.53125 L 87.3125 -171.53125 L 87.3125 -135.375 L 75.84375 -135.375 L 91.0625 -61.515625 L 93.265625 -61.515625 L 108.484375 -135.375 L 97.015625 -135.375 Z M 97.015625 -171.53125 "/></g></g></g></svg>